<svg width="283" height="141" viewBox="0 0 283 141" xmlns="http://www.w3.org/2000/svg"><title>logo copy</title><g id="Page-1" fill="none" fill-rule="evenodd"><g id="Desktop-HD" fill="#FFF"><g id="logo-copy"><path d="M20.52 20.649c-27.36 27.532-27.36 72.17 0 99.702 27.36 27.532 71.72 27.532 99.081 0a5.695 5.695 0 0 0 0-8.019 5.61 5.61 0 0 0-7.969 0c-22.959 23.103-60.183 23.103-83.143 0-22.959-23.103-22.959-60.56 0-83.664 22.96-23.103 60.184-23.103 83.143 0a5.61 5.61 0 0 0 7.97 0 5.695 5.695 0 0 0 0-8.019C92.24-6.883 47.88-6.883 20.52 20.649zm17.031 17.138c-17.878 17.99-17.878 47.16 0 65.15 17.879 17.99 46.866 17.99 64.745 0a5.695 5.695 0 0 0 0-8.019 5.61 5.61 0 0 0-7.97 0c-13.477 13.562-35.328 13.562-48.806 0-13.477-13.562-13.477-35.55 0-49.112 13.478-13.562 35.33-13.562 48.807 0a5.61 5.61 0 0 0 7.969 0 5.695 5.695 0 0 0 0-8.02c-17.879-17.99-46.866-17.99-64.745 0z" id="Shape" opacity=".3"/><g id="Group"><path d="M63.267 47.898c-1.152-1.296-2.826-2.052-5.13-2.052-4.464 0-6.93 3.096-6.93 7.56 0 4.464 2.34 7.38 6.912 7.38 2.25 0 3.96-.756 5.112-2.052l-.936-.936c-.9 1.116-2.25 1.782-4.176 1.782-4.014 0-5.598-2.79-5.598-6.174 0-3.438 1.638-6.354 5.616-6.354 1.944 0 3.276.684 4.158 1.8l.972-.954zm13.428 5.508c0 3.384-1.476 6.174-5.292 6.174-3.78 0-5.292-2.79-5.292-6.174 0-3.42 1.494-6.354 5.292-6.354 3.852 0 5.292 3.024 5.292 6.354zm1.314 0c0-4.482-2.268-7.56-6.606-7.56-4.32 0-6.606 3.096-6.606 7.56 0 4.464 2.268 7.38 6.606 7.38 4.266 0 6.606-2.916 6.606-7.38zM90.033 59.4h-8.28l.126-.126V46.026h-1.26v14.58h9.414V59.4zm11.304 0h-8.28l.126-.126V46.026h-1.26v14.58h9.414V59.4zm12.15 0h-9.126l.126-.126v-5.238l-.126-.108h8.262v-1.224h-8.262l.126-.108v-5.238l-.126-.126h9.126v-1.206h-10.26v14.58h10.26V59.4zm14.31-11.502c-1.152-1.296-2.826-2.052-5.13-2.052-4.464 0-6.93 3.096-6.93 7.56 0 4.464 2.34 7.38 6.912 7.38 2.25 0 3.96-.756 5.112-2.052l-.936-.936c-.9 1.116-2.25 1.782-4.176 1.782-4.014 0-5.598-2.79-5.598-6.174 0-3.438 1.638-6.354 5.616-6.354 1.944 0 3.276.684 4.158 1.8l.972-.954zm12.6-1.872h-11.7v1.206h5.31l-.09.126v13.248h1.26V47.358l-.09-.126h5.31v-1.206zm3.33 0h-1.26v14.58h1.26v-14.58zm14.13 0l-4.788 11.646-.54 1.674h-.054l-.54-1.656-4.788-11.664h-1.44l6.084 14.58h1.386l6.084-14.58h-1.404zM171.41 59.4h-9.126l.126-.126v-5.238l-.126-.108h8.262v-1.224h-8.262l.126-.108v-5.238l-.126-.126h9.126v-1.206h-10.26v14.58h10.26V59.4z" id="COLLECTIVE" transform="translate(59.1 41.936)"/><path d="M59.262.065h-8.775V.97h3.982l-.067.094V11h.945V1.064l-.068-.095h3.983V.066zm10.125 0h-.945v4.927l.094.082h-6.939l.095-.082V.066h-.945V11h.945V6.072l-.095-.08h6.94l-.095.08V11h.945V.065zm10.125 10.03h-6.845l.095-.094V6.073l-.095-.082h6.197v-.917h-6.197l.095-.082V1.064l-.095-.095h6.845V.066h-7.695V11h7.695v-.905z" id="THE" transform="translate(59.1 41.936)"/><path d="M14.713 24.19c0 1.43-1.161 2.78-3.969 2.78H4.588l.432-.431v-4.78l-.432-.404h6.426c2.403 0 3.699.972 3.699 2.835zm3.159 7.533c-.594-1.134-1.485-1.944-2.214-2.268 1.944-.945 3.726-3.051 3.726-5.373 0-4.671-4.023-6.831-8.37-6.831H.43v21.87h4.59v-7.83l-.432-.405h4.347c2.538 0 3.78.756 4.671 2.457l2.997 5.778h5.157l-3.888-7.398zm23.793 3.294H27.733l.432-.432V30.67l-.432-.432h12.636v-4.104H27.733l.432-.432v-3.915l-.432-.432h13.932V17.25h-18.09v21.87h18.09v-4.104zm22.605-2.133c0-2.916-2.268-5.292-6.831-6.4-.513-.107-3.051-.755-3.537-.89-3.537-.891-4.536-1.458-4.536-2.376 0-1.026 1.296-2.16 4.86-2.16 2.538 0 4.86 1.134 6.372 2.862l3.213-3.186c-2.376-2.43-5.616-3.753-9.531-3.753-6.264 0-9.585 2.862-9.585 6.345 0 3.699 3.483 5.157 7.371 6.156.513.135 3.564.89 4.05.999 2.862.702 3.483 1.782 3.483 2.484 0 1.215-1.296 2.349-4.887 2.349-2.538 0-5.13-.945-7.371-2.97l-3.186 3.186c2.754 2.646 6.507 3.86 10.395 3.86 6.75 0 9.72-3.131 9.72-6.506zM85.12 17.25H65.41v4.104h7.803l-.243.432V39.12h4.59V21.787l-.243-.432h7.803V17.25zm6.891 12.825l.459-.432 2.268-4.752.675-1.971.054-.027.675 1.998 2.268 4.752.459.432h-6.858zm5.454-12.825h-4.05l-10.53 21.87h5.049l2.268-4.806-.27-.405h10.989l-.27.405 2.295 4.806h5.022L97.465 17.25zm32.217 0h-4.59v11.772c0 4.13-1.566 6.264-5.697 6.264-4.185 0-5.697-2.133-5.697-6.264V17.25h-4.59V29.05c0 6.588 3.321 10.34 10.314 10.34 6.966 0 10.26-3.806 10.26-10.34v-11.8zm18.258 6.939c0 1.43-1.161 2.78-3.969 2.78h-6.156l.432-.431v-4.78l-.432-.404h6.426c2.403 0 3.699.972 3.699 2.835zm3.159 7.533c-.594-1.134-1.485-1.944-2.214-2.268V29.4c1.944-.891 3.726-2.997 3.726-5.32 0-4.67-4.023-6.83-8.37-6.83h-10.584v21.87h4.59v-7.83l-.432-.405h4.347c2.538 0 3.78.756 4.671 2.457l2.997 5.778h5.157l-3.888-7.398zm12.804-1.647l.459-.432 2.268-4.752.675-1.971.054-.027.675 1.998 2.268 4.752.459.432h-6.858zm5.454-12.825h-4.05l-10.53 21.87h5.049l2.268-4.806-.27-.405h10.989l-.27.405 2.295 4.806h5.022l-10.503-21.87zm32.568 0h-4.59v14.526h-.054l-1.512-2.484-9.963-12.042h-3.861v21.87h4.59V24.514h.054l1.62 2.565 9.855 12.042h3.861V17.25zm21.93 0h-19.71v4.104h7.803l-.243.432V39.12h4.59V21.787l-.243-.432h7.803V17.25z" id="RESTAURANT" transform="translate(59.1 41.936)"/></g></g></g></g></svg>