<svg width="283" height="141" viewBox="0 0 283 141" xmlns="http://www.w3.org/2000/svg"><title>logo</title><g id="Page-1" fill="none" fill-rule="evenodd"><g id="Desktop"><g id="logo"><path d="M20.52 20.649c-27.36 27.532-27.36 72.17 0 99.702 27.36 27.532 71.72 27.532 99.081 0a5.695 5.695 0 0 0 0-8.019 5.61 5.61 0 0 0-7.969 0c-22.959 23.103-60.183 23.103-83.143 0-22.959-23.103-22.959-60.56 0-83.664 22.96-23.103 60.184-23.103 83.143 0a5.61 5.61 0 0 0 7.97 0 5.695 5.695 0 0 0 0-8.019C92.24-6.883 47.88-6.883 20.52 20.649zm17.031 17.138c-17.878 17.99-17.878 47.16 0 65.15 17.879 17.99 46.866 17.99 64.745 0a5.695 5.695 0 0 0 0-8.019 5.61 5.61 0 0 0-7.97 0c-13.477 13.562-35.328 13.562-48.806 0-13.477-13.562-13.477-35.55 0-49.112 13.478-13.562 35.33-13.562 48.807 0a5.61 5.61 0 0 0 7.969 0 5.695 5.695 0 0 0 0-8.02c-17.879-17.99-46.866-17.99-64.745 0z" id="Shape" fill="#4A4A4A"/><g id="Group" fill="#FFF"><text id="COLLECTIVE" font-family="SinkinSans-300Light, Sinkin Sans" font-size="18" font-weight="300" transform="translate(57.1 38.936)"><tspan x="52.217" y="63.606">COLLECTIVE</tspan></text><text id="THE" font-family="SinkinSans-300Light, Sinkin Sans" font-size="13.5" font-weight="300" transform="translate(57.1 38.936)"><tspan x="52.217" y="14">THE</tspan></text><text id="RESTAURANT" font-family="SinkinSans-700Bold, Sinkin Sans" font-size="27" font-weight="bold" letter-spacing="-.75" transform="translate(57.1 38.936)"><tspan x="0" y="42.121">RESTAURAN</tspan> <tspan x="205.605" y="42.121">T</tspan></text></g></g></g></g></svg>