<?xml version="1.0" encoding="UTF-8" standalone="no"?>
<svg width="283px" height="141px" viewBox="0 0 283 141" version="1.1" xmlns="http://www.w3.org/2000/svg" xmlns:xlink="http://www.w3.org/1999/xlink">
    <!-- Generator: Sketch 3.6.1 (26313) - http://www.bohemiancoding.com/sketch -->
    <title>logo</title>
    <desc>Created with Sketch.</desc>
    <defs></defs>
    <g id="Page-1" stroke="none" stroke-width="1" fill="none" fill-rule="evenodd">
        <g id="Desktop" transform="translate(-244.000000, -512.000000)">
            <g id="logo" transform="translate(244.000000, 512.000000)">
                <path d="M20.5203469,20.6489719 C-6.84011562,48.1809345 -6.84011562,92.8190655 20.5203469,120.351028 C47.8808093,147.882991 92.2408838,147.882991 119.601346,120.351028 C121.80192,118.136661 121.80192,114.546463 119.601346,112.332096 C117.400773,110.117729 113.832938,110.117729 111.632365,112.332096 C88.6730494,135.435325 51.4486437,135.435325 28.489328,112.332096 C5.53001234,89.2288673 5.53001234,51.7711327 28.489328,28.6679041 C51.4486437,5.56467541 88.6730494,5.56467541 111.632365,28.6679041 C113.832938,30.882271 117.400773,30.882271 119.601346,28.6679041 C121.80192,26.4535371 121.80192,22.8633389 119.601346,20.6489719 C92.2408838,-6.88299064 47.8808093,-6.88299064 20.5203469,20.6489719 Z M37.5513371,37.7867153 C19.6726812,55.7774377 19.6726812,84.9461619 37.5513371,102.936884 C55.429993,120.927607 84.4170214,120.927607 102.295677,102.936884 C104.496251,100.722517 104.496251,97.1323191 102.295677,94.9179521 C100.095104,92.7035851 96.5272695,92.7035851 94.3266961,94.9179521 C80.849187,108.479941 58.9978274,108.479941 45.5203183,94.9179521 C32.0428092,81.3559636 32.0428092,59.3676359 45.5203183,45.8056475 C58.9978274,32.243659 80.849187,32.243659 94.3266961,45.8056475 C96.5272695,48.0200144 100.095104,48.0200144 102.295677,45.8056475 C104.496251,43.5912805 104.496251,40.0010823 102.295677,37.7867153 C84.4170214,19.795993 55.429993,19.795993 37.5513371,37.7867153 Z" id="Shape" fill="#C3E321"></path>
                <g id="Group" transform="translate(59.100529, 41.935657)" fill="#000000">
                    <path d="M63.2669312,47.8978981 C62.1149312,46.6018981 60.4409312,45.8458981 58.1369312,45.8458981 C53.6729312,45.8458981 51.2069312,48.9418981 51.2069312,53.4058981 C51.2069312,57.8698981 53.5469312,60.7858981 58.1189312,60.7858981 C60.3689312,60.7858981 62.0789312,60.0298981 63.2309312,58.7338981 L62.2949312,57.7978981 C61.3949312,58.9138981 60.0449312,59.5798981 58.1189312,59.5798981 C54.1049312,59.5798981 52.5209312,56.7898981 52.5209312,53.4058981 C52.5209312,49.9678981 54.1589312,47.0518981 58.1369312,47.0518981 C60.0809312,47.0518981 61.4129312,47.7358981 62.2949312,48.8518981 L63.2669312,47.8978981 Z M76.6949312,53.4058981 C76.6949312,56.7898981 75.2189312,59.5798981 71.4029312,59.5798981 C67.6229312,59.5798981 66.1109312,56.7898981 66.1109312,53.4058981 C66.1109312,49.9858981 67.6049312,47.0518981 71.4029312,47.0518981 C75.2549312,47.0518981 76.6949312,50.0758981 76.6949312,53.4058981 L76.6949312,53.4058981 Z M78.0089312,53.4058981 C78.0089312,48.9238981 75.7409312,45.8458981 71.4029312,45.8458981 C67.0829312,45.8458981 64.7969312,48.9418981 64.7969312,53.4058981 C64.7969312,57.8698981 67.0649312,60.7858981 71.4029312,60.7858981 C75.6689312,60.7858981 78.0089312,57.8698981 78.0089312,53.4058981 L78.0089312,53.4058981 Z M90.0329312,59.3998981 L81.7529312,59.3998981 L81.8789312,59.2738981 L81.8789312,46.0258981 L80.6189312,46.0258981 L80.6189312,60.6058981 L90.0329312,60.6058981 L90.0329312,59.3998981 Z M101.336931,59.3998981 L93.0569312,59.3998981 L93.1829312,59.2738981 L93.1829312,46.0258981 L91.9229312,46.0258981 L91.9229312,60.6058981 L101.336931,60.6058981 L101.336931,59.3998981 Z M113.486931,59.3998981 L104.360931,59.3998981 L104.486931,59.2738981 L104.486931,54.0358981 L104.360931,53.9278981 L112.622931,53.9278981 L112.622931,52.7038981 L104.360931,52.7038981 L104.486931,52.5958981 L104.486931,47.3578981 L104.360931,47.2318981 L113.486931,47.2318981 L113.486931,46.0258981 L103.226931,46.0258981 L103.226931,60.6058981 L113.486931,60.6058981 L113.486931,59.3998981 Z M127.796931,47.8978981 C126.644931,46.6018981 124.970931,45.8458981 122.666931,45.8458981 C118.202931,45.8458981 115.736931,48.9418981 115.736931,53.4058981 C115.736931,57.8698981 118.076931,60.7858981 122.648931,60.7858981 C124.898931,60.7858981 126.608931,60.0298981 127.760931,58.7338981 L126.824931,57.7978981 C125.924931,58.9138981 124.574931,59.5798981 122.648931,59.5798981 C118.634931,59.5798981 117.050931,56.7898981 117.050931,53.4058981 C117.050931,49.9678981 118.688931,47.0518981 122.666931,47.0518981 C124.610931,47.0518981 125.942931,47.7358981 126.824931,48.8518981 L127.796931,47.8978981 Z M140.396931,46.0258981 L128.696931,46.0258981 L128.696931,47.2318981 L134.006931,47.2318981 L133.916931,47.3578981 L133.916931,60.6058981 L135.176931,60.6058981 L135.176931,47.3578981 L135.086931,47.2318981 L140.396931,47.2318981 L140.396931,46.0258981 Z M143.726931,46.0258981 L142.466931,46.0258981 L142.466931,60.6058981 L143.726931,60.6058981 L143.726931,46.0258981 Z M157.856931,46.0258981 L153.068931,57.6718981 L152.528931,59.3458981 L152.474931,59.3458981 L151.934931,57.6898981 L147.146931,46.0258981 L145.706931,46.0258981 L151.790931,60.6058981 L153.176931,60.6058981 L159.260931,46.0258981 L157.856931,46.0258981 Z M171.410931,59.3998981 L162.284931,59.3998981 L162.410931,59.2738981 L162.410931,54.0358981 L162.284931,53.9278981 L170.546931,53.9278981 L170.546931,52.7038981 L162.284931,52.7038981 L162.410931,52.5958981 L162.410931,47.3578981 L162.284931,47.2318981 L171.410931,47.2318981 L171.410931,46.0258981 L161.150931,46.0258981 L161.150931,60.6058981 L171.410931,60.6058981 L171.410931,59.3998981 Z" id="COLLECTIVE"></path>
                    <path d="M59.2619312,0.065 L50.4869312,0.065 L50.4869312,0.9695 L54.4694312,0.9695 L54.4019312,1.064 L54.4019312,11 L55.3469312,11 L55.3469312,1.064 L55.2794312,0.9695 L59.2619312,0.9695 L59.2619312,0.065 Z M69.3869312,0.065 L68.4419312,0.065 L68.4419312,4.9925 L68.5364312,5.0735 L61.5974312,5.0735 L61.6919312,4.9925 L61.6919312,0.065 L60.7469312,0.065 L60.7469312,11 L61.6919312,11 L61.6919312,6.0725 L61.5974312,5.9915 L68.5364312,5.9915 L68.4419312,6.0725 L68.4419312,11 L69.3869312,11 L69.3869312,0.065 Z M79.5119312,10.0955 L72.6674312,10.0955 L72.7619312,10.001 L72.7619312,6.0725 L72.6674312,5.9915 L78.8639312,5.9915 L78.8639312,5.0735 L72.6674312,5.0735 L72.7619312,4.9925 L72.7619312,1.064 L72.6674312,0.9695 L79.5119312,0.9695 L79.5119312,0.065 L71.8169312,0.065 L71.8169312,11 L79.5119312,11 L79.5119312,10.0955 Z" id="THE"></path>
                    <path d="M14.713,24.1896434 C14.713,25.6206434 13.552,26.9706434 10.744,26.9706434 L4.588,26.9706434 L5.02,26.5386434 L5.02,21.7596434 L4.588,21.3546434 L11.014,21.3546434 C13.417,21.3546434 14.713,22.3266434 14.713,24.1896434 L14.713,24.1896434 Z M17.872,31.7226434 C17.278,30.5886434 16.387,29.7786434 15.658,29.4546434 C17.602,28.5096434 19.384,26.4036434 19.384,24.0816434 C19.384,19.4106434 15.361,17.2506434 11.014,17.2506434 L0.43,17.2506434 L0.43,39.1206434 L5.02,39.1206434 L5.02,31.2906434 L4.588,30.8856434 L8.935,30.8856434 C11.473,30.8856434 12.715,31.6416434 13.606,33.3426434 L16.603,39.1206434 L21.76,39.1206434 L17.872,31.7226434 Z M41.665,35.0166434 L27.733,35.0166434 L28.165,34.5846434 L28.165,30.6696434 L27.733,30.2376434 L40.369,30.2376434 L40.369,26.1336434 L27.733,26.1336434 L28.165,25.7016434 L28.165,21.7866434 L27.733,21.3546434 L41.665,21.3546434 L41.665,17.2506434 L23.575,17.2506434 L23.575,39.1206434 L41.665,39.1206434 L41.665,35.0166434 Z M64.27,32.8836434 C64.27,29.9676434 62.002,27.5916434 57.439,26.4846434 C56.926,26.3766434 54.388,25.7286434 53.902,25.5936434 C50.365,24.7026434 49.366,24.1356434 49.366,23.2176434 C49.366,22.1916434 50.662,21.0576434 54.226,21.0576434 C56.764,21.0576434 59.086,22.1916434 60.598,23.9196434 L63.811,20.7336434 C61.435,18.3036434 58.195,16.9806434 54.28,16.9806434 C48.016,16.9806434 44.695,19.8426434 44.695,23.3256434 C44.695,27.0246434 48.178,28.4826434 52.066,29.4816434 C52.579,29.6166434 55.63,30.3726434 56.116,30.4806434 C58.978,31.1826434 59.599,32.2626434 59.599,32.9646434 C59.599,34.1796434 58.303,35.3136434 54.712,35.3136434 C52.174,35.3136434 49.582,34.3686434 47.341,32.3436434 L44.155,35.5296434 C46.909,38.1756434 50.662,39.3906434 54.55,39.3906434 C61.3,39.3906434 64.27,36.2586434 64.27,32.8836434 L64.27,32.8836434 Z M85.12,17.2506434 L65.41,17.2506434 L65.41,21.3546434 L73.213,21.3546434 L72.97,21.7866434 L72.97,39.1206434 L77.56,39.1206434 L77.56,21.7866434 L77.317,21.3546434 L85.12,21.3546434 L85.12,17.2506434 Z M92.011,30.0756434 L92.47,29.6436434 L94.738,24.8916434 L95.413,22.9206434 L95.467,22.8936434 L96.142,24.8916434 L98.41,29.6436434 L98.869,30.0756434 L92.011,30.0756434 Z M97.465,17.2506434 L93.415,17.2506434 L82.885,39.1206434 L87.934,39.1206434 L90.202,34.3146434 L89.932,33.9096434 L100.921,33.9096434 L100.651,34.3146434 L102.946,39.1206434 L107.968,39.1206434 L97.465,17.2506434 Z M129.682,17.2506434 L125.092,17.2506434 L125.092,29.0226434 C125.092,33.1536434 123.526,35.2866434 119.395,35.2866434 C115.21,35.2866434 113.698,33.1536434 113.698,29.0226434 L113.698,17.2506434 L109.108,17.2506434 L109.108,29.0496434 C109.108,35.6376434 112.429,39.3906434 119.422,39.3906434 C126.388,39.3906434 129.682,35.5836434 129.682,29.0496434 L129.682,17.2506434 Z M147.94,24.1896434 C147.94,25.6206434 146.779,26.9706434 143.971,26.9706434 L137.815,26.9706434 L138.247,26.5386434 L138.247,21.7596434 L137.815,21.3546434 L144.241,21.3546434 C146.644,21.3546434 147.94,22.3266434 147.94,24.1896434 L147.94,24.1896434 Z M151.099,31.7226434 C150.505,30.5886434 149.614,29.7786434 148.885,29.4546434 L148.885,29.4006434 C150.829,28.5096434 152.611,26.4036434 152.611,24.0816434 C152.611,19.4106434 148.588,17.2506434 144.241,17.2506434 L133.657,17.2506434 L133.657,39.1206434 L138.247,39.1206434 L138.247,31.2906434 L137.815,30.8856434 L142.162,30.8856434 C144.7,30.8856434 145.942,31.6416434 146.833,33.3426434 L149.83,39.1206434 L154.987,39.1206434 L151.099,31.7226434 Z M163.903,30.0756434 L164.362,29.6436434 L166.63,24.8916434 L167.305,22.9206434 L167.359,22.8936434 L168.034,24.8916434 L170.302,29.6436434 L170.761,30.0756434 L163.903,30.0756434 Z M169.357,17.2506434 L165.307,17.2506434 L154.777,39.1206434 L159.826,39.1206434 L162.094,34.3146434 L161.824,33.9096434 L172.813,33.9096434 L172.543,34.3146434 L174.838,39.1206434 L179.86,39.1206434 L169.357,17.2506434 Z M201.925,17.2506434 L197.335,17.2506434 L197.335,31.7766434 L197.281,31.7766434 L195.769,29.2926434 L185.806,17.2506434 L181.945,17.2506434 L181.945,39.1206434 L186.535,39.1206434 L186.535,24.5136434 L186.589,24.5136434 L188.209,27.0786434 L198.064,39.1206434 L201.925,39.1206434 L201.925,17.2506434 Z M223.855,17.2506434 L204.145,17.2506434 L204.145,21.3546434 L211.948,21.3546434 L211.705,21.7866434 L211.705,39.1206434 L216.295,39.1206434 L216.295,21.7866434 L216.052,21.3546434 L223.855,21.3546434 L223.855,17.2506434 Z" id="RESTAURANT"></path>
                </g>
            </g>
        </g>
    </g>
</svg>