<?xml version="1.0" encoding="UTF-8" standalone="no"?>
<svg width="283px" height="141px" viewBox="0 0 283 141" version="1.1" xmlns="http://www.w3.org/2000/svg" xmlns:xlink="http://www.w3.org/1999/xlink">
    <!-- Generator: Sketch 3.6.1 (26313) - http://www.bohemiancoding.com/sketch -->
    <title>logo</title>
    <desc>Created with Sketch.</desc>
    <defs></defs>
    <g id="Page-1" stroke="none" stroke-width="1" fill="none" fill-rule="evenodd">
        <g id="Desktop-HD" transform="translate(-1042.000000, -754.000000)">
            <g id="logo" transform="translate(1042.000000, 754.000000)">
                <path d="M20.5203469,20.6489719 C-6.84011562,48.1809345 -6.84011562,92.8190655 20.5203469,120.351028 C47.8808093,147.882991 92.2408838,147.882991 119.601346,120.351028 C121.80192,118.136661 121.80192,114.546463 119.601346,112.332096 C117.400773,110.117729 113.832938,110.117729 111.632365,112.332096 C88.6730494,135.435325 51.4486437,135.435325 28.489328,112.332096 C5.53001234,89.2288673 5.53001234,51.7711327 28.489328,28.6679041 C51.4486437,5.56467541 88.6730494,5.56467541 111.632365,28.6679041 C113.832938,30.882271 117.400773,30.882271 119.601346,28.6679041 C121.80192,26.4535371 121.80192,22.8633389 119.601346,20.6489719 C92.2408838,-6.88299064 47.8808093,-6.88299064 20.5203469,20.6489719 Z M37.5513371,37.7867153 C19.6726812,55.7774377 19.6726812,84.9461619 37.5513371,102.936884 C55.429993,120.927607 84.4170214,120.927607 102.295677,102.936884 C104.496251,100.722517 104.496251,97.1323191 102.295677,94.9179521 C100.095104,92.7035851 96.5272695,92.7035851 94.3266961,94.9179521 C80.849187,108.479941 58.9978274,108.479941 45.5203183,94.9179521 C32.0428092,81.3559636 32.0428092,59.3676359 45.5203183,45.8056475 C58.9978274,32.243659 80.849187,32.243659 94.3266961,45.8056475 C96.5272695,48.0200144 100.095104,48.0200144 102.295677,45.8056475 C104.496251,43.5912805 104.496251,40.0010823 102.295677,37.7867153 C84.4170214,19.795993 55.429993,19.795993 37.5513371,37.7867153 Z" id="Shape" fill="#E9028B" opacity="0.498367537"></path>
                <g id="Group" transform="translate(57.100529, 38.935657)" fill="#000000">
                    <text id="COLLECTIVE" font-family="SinkinSans-300Light, Sinkin Sans" font-size="18" font-weight="300">
                        <tspan x="52.2169312" y="63.6058981">COLLECTIVE</tspan>
                    </text>
                    <text id="THE" font-family="SinkinSans-300Light, Sinkin Sans" font-size="13.5" font-weight="300">
                        <tspan x="52.2169312" y="14">THE</tspan>
                    </text>
                    <text id="RESTAURANT" font-family="SinkinSans-700Bold, Sinkin Sans" font-size="27" font-weight="bold" letter-spacing="-0.75">
                        <tspan x="0" y="42.1206434">RESTAURAN</tspan>
                        <tspan x="205.605" y="42.1206434">T</tspan>
                    </text>
                </g>
            </g>
        </g>
    </g>
</svg>